<svg width="43" height="43" viewBox="0 0 43 43" fill="none" xmlns="http://www.w3.org/2000/svg">
<path d="M21.0406 1.85019C16.2489 5.64267 14.2654 5.02564 12.6162 1.86867C14.0101 7.03513 13.4903 7.44649 8.86037 11.6607C14.5145 8.66535 16.9402 8.78528 19.8598 12.2643C16.9282 7.80376 17.2602 5.93603 21.0406 1.85019ZM22.5865 1.86077L23.5681 11.5138L15.1802 16.3928L23.3897 18.1642C22.5851 18.8657 21.692 19.7623 20.7626 20.6917L20.76 20.6943L1.55902 39.6774V41.3099H4.25962L22.9566 22.8858C23.8182 22.0238 24.544 21.2449 25.1217 20.5552L26.7122 27.9248L31.5912 19.5369L41.2442 20.5185L34.7748 13.2879L38.6931 4.41163L29.8168 8.33009L22.5864 1.86077H22.5865ZM2.2571 4.69793C5.09283 7.02094 5.21419 8.28969 4.83962 12.0701C6.43322 7.5576 7.18816 6.41818 10.2566 5.18336C6.96837 5.9708 5.56062 6.13087 2.2571 4.6981V4.69793ZM6.85524 13.2984C8.95107 15.567 9.1203 16.9672 8.89187 19.3505C10.1327 16.4573 10.7456 15.5158 13.5635 13.9493C10.661 14.8885 9.74221 14.8076 6.85524 13.2984ZM34.2001 21.277C34.9786 25.6184 33.8129 27.4673 31.4416 30.237C35.0781 27.126 36.3003 26.5178 39.575 26.9826C36.3334 26.0204 35.5919 25.2505 34.2 21.277L34.2001 21.277ZM29.5257 27.392C27.9547 33.1693 25.7208 34.442 20.4868 33.2814C25.0326 34.9695 25.2185 35.051 24.9827 40.4411C27.0619 35.7867 28.8871 36.0557 32.9662 37.3154C29.4578 34.6416 29.1273 33.2027 29.5257 27.3921V27.392ZM38.7088 32.0926C37.4222 33.6038 36.7829 33.5615 35.0293 32.8773C36.9465 34.4263 36.5071 35.7348 35.94 37.8664C37.288 36.2606 37.915 35.7469 40.1655 36.8008C38.2456 35.0084 37.887 34.2933 38.7088 32.0925V32.0926Z" fill="white"/>
</svg>
