<svg width="46" height="46" viewBox="0 0 46 46" fill="none" xmlns="http://www.w3.org/2000/svg">
<path d="M23 32.7917L30.5 24.6667M30.5 24.6667L23 16.5417M30.5 24.6667H3M3 11.7967V11.6672C3 8.63357 3 7.11564 3.54497 5.95696C4.02432 4.93773 4.78868 4.10968 5.7295 3.59039C6.79905 3 8.20023 3 11.0005 3H35.0005C37.8007 3 39.199 3 40.2685 3.59039C41.2093 4.10968 41.9762 4.93773 42.4555 5.95696C43 7.1145 43 8.63059 43 11.6583V37.6764C43 40.704 43 42.218 42.4555 43.3755C41.9762 44.3947 41.2093 45.2243 40.2685 45.7434C39.2 46.3333 37.8025 46.3333 35.0078 46.3333H10.9923C8.19747 46.3333 6.798 46.3333 5.7295 45.7434C4.78868 45.2243 4.02432 44.3939 3.54497 43.3747C3 42.2161 3 40.7003 3 37.6666V37.5312" stroke="white" stroke-width="5" stroke-linecap="round" stroke-linejoin="round"/>
</svg>
