<?xml version="1.0" encoding="UTF-8" standalone="no"?>
<!DOCTYPE svg PUBLIC "-//W3C//DTD SVG 1.1//EN" "http://www.w3.org/Graphics/SVG/1.1/DTD/svg11.dtd">
<svg xmlns="http://www.w3.org/2000/svg" version="1.1" viewBox="0.00 0.00 135.00 68.00">
<g stroke-width="2.00" fill="none" stroke-linecap="butt">
<path stroke="#f480c0" vector-effect="non-scaling-stroke" d="
  M 27.94 27.97
  Q 29.77 20.93 34.04 15.03
  A 0.58 0.58 0.0 0 0 33.38 14.14
  Q 30.83 15.03 28.67 17.18
  Q 16.24 29.58 17.32 47.38
  Q 17.42 49.08 18.31 50.37
  A 0.47 0.47 0.0 0 0 19.10 50.35
  C 21.95 45.75 25.92 39.07 30.00 36.48
  Q 30.52 36.15 30.46 36.77
  Q 29.81 43.35 31.79 49.60
  A 1.29 1.29 0.0 0 0 34.11 49.91
  Q 38.40 43.28 45.05 39.08
  A 0.23 0.23 0.0 0 1 45.37 39.40
  Q 42.42 44.19 41.41 49.75
  A 0.85 0.85 0.0 0 0 42.82 50.54
  L 53.52 41.03
  A 0.18 0.18 0.0 0 1 53.79 41.25
  Q 51.52 45.08 50.93 49.51
  A 1.02 1.01 71.9 0 0 52.64 50.38
  C 56.94 46.25 61.68 41.09 67.14 38.21
  Q 67.89 37.82 67.37 38.48
  C 64.66 41.95 62.44 45.01 61.53 49.50
  A 0.95 0.95 0.0 0 0 62.85 50.56
  C 69.10 47.78 75.53 42.64 81.23 38.77
  Q 82.46 37.93 83.86 37.50
  Q 84.98 37.16 84.01 37.83
  C 80.77 40.06 74.12 45.52 74.40 49.76
  C 74.67 53.87 79.88 54.12 82.17 51.99
  Q 83.39 50.84 84.33 47.40
  Q 85.69 42.41 88.16 38.02
  A 0.55 0.55 0.0 0 1 89.19 38.28
  Q 89.39 52.40 103.44 53.38
  Q 105.15 53.50 107.17 51.67
  Q 107.51 51.36 107.49 50.92
  Q 107.43 48.90 106.01 48.16
  Q 97.01 43.50 91.82 36.68
  Q 91.39 36.12 92.09 36.04
  Q 104.95 34.67 112.49 24.76
  C 114.74 21.80 117.16 13.94 112.49 11.77
  Q 111.68 11.39 111.14 12.10
  Q 102.49 23.55 91.83 33.13
  Q 90.74 34.10 90.60 32.65
  Q 90.16 28.15 90.36 23.15
  C 90.47 20.45 91.37 16.82 91.26 13.61
  A 1.87 1.87 0.0 0 0 88.98 11.85
  Q 86.45 12.42 84.74 14.56
  C 79.61 21.00 81.72 28.95 86.66 34.72
  Q 87.06 35.19 86.48 35.40
  Q 79.00 38.06 72.26 42.29
  A 0.19 0.19 0.0 0 1 72.01 42.02
  L 78.64 32.95
  A 1.47 1.47 0.0 0 0 77.67 30.63
  C 74.62 30.17 67.62 34.91 64.92 36.64
  Q 63.78 37.37 64.51 36.23
  L 67.64 31.33
  A 0.68 0.67 16.8 0 0 67.08 30.29
  C 62.10 30.20 57.36 36.04 54.10 38.41
  Q 51.53 40.29 49.18 42.18
  A 0.50 0.50 0.0 0 1 48.47 41.50
  L 55.95 31.25
  A 0.93 0.59 -4.2 0 0 54.64 30.55
  Q 51.14 32.02 49.07 34.15
  C 46.07 37.24 42.29 39.06 38.93 41.79
  Q 38.20 42.39 38.56 41.51
  C 42.46 31.99 50.37 22.22 57.80 15.32
  A 0.70 0.70 0.0 0 0 57.14 14.13
  Q 47.56 16.70 41.05 24.56
  Q 39.53 26.41 37.78 28.12
  Q 37.19 28.70 37.37 27.89
  Q 38.52 22.71 40.65 17.78
  A 0.94 0.94 0.0 0 0 39.29 16.61
  C 34.26 19.71 31.62 23.43 28.33 28.14
  Q 27.63 29.14 27.94 27.97"
/>
<path stroke="#f480c0" vector-effect="non-scaling-stroke" d="
  M 64.01 23.66
  A 0.74 0.74 0.0 0 1 63.49 22.49
  L 64.54 21.03
  A 0.04 0.04 0.0 0 0 64.48 20.97
  Q 59.37 24.56 53.58 24.91
  Q 53.50 24.92 53.50 25.01
  Q 53.50 25.07 53.49 25.11
  Q 53.46 25.18 53.50 25.17
  Q 55.71 24.65 57.61 25.86
  A 0.78 0.78 0.0 0 1 57.90 26.85
  L 57.32 28.08
  Q 57.02 28.73 57.59 28.30
  Q 63.17 24.07 70.27 24.71
  Q 70.54 24.73 70.56 24.50
  L 70.56 24.50
  Q 70.57 24.39 70.53 24.38
  L 64.01 23.66"
/>
<path stroke="#f480c0" vector-effect="non-scaling-stroke" d="
  M 85.20 24.54
  C 84.96 28.19 85.65 30.85 87.82 33.39
  Q 88.26 33.91 88.26 33.23
  L 88.17 24.15
  A 1.07 1.07 0.0 0 0 87.06 23.09
  L 86.67 23.11
  Q 85.29 23.17 85.20 24.54"
/>
<path stroke="#f480c0" vector-effect="non-scaling-stroke" d="
  M 93.70 34.38
  C 98.20 32.96 101.92 31.12 105.53 27.94
  Q 106.79 26.83 105.92 25.40
  L 105.72 25.07
  A 1.13 1.12 53.7 0 0 104.01 24.80
  L 93.54 34.08
  A 0.18 0.17 -74.0 0 0 93.70 34.38"
/>
<path stroke="#f480c0" vector-effect="non-scaling-stroke" d="
  M 81.45 47.17
  L 85.18 39.00
  Q 85.30 38.74 85.06 38.89
  C 83.29 40.04 77.46 44.94 79.29 47.40
  A 1.27 1.26 38.8 0 0 81.45 47.17"
/>
<path stroke="#f480c0" vector-effect="non-scaling-stroke" d="
  M 90.58 39.35
  C 91.20 43.04 92.60 46.29 95.84 48.71
  A 1.62 1.62 0.0 0 0 97.91 48.60
  L 98.30 48.24
  A 1.17 1.17 0.0 0 0 98.21 46.45
  Q 94.08 43.33 91.02 39.16
  Q 90.41 38.33 90.58 39.35"
/>
</g>
<path fill="#ffffff" d="
  M 60.95 0.00
  L 72.98 0.00
  C 91.70 1.05 117.45 6.08 129.94 21.75
  C 135.91 29.25 135.83 37.96 130.47 45.58
  C 119.23 61.51 91.33 67.00 73.09 68.00
  L 61.84 68.00
  C 42.57 67.35 4.07 59.47 0.00 35.86
  L 0.00 31.98
  C 4.56 8.51 41.69 0.93 60.95 0.00
  Z
  M 27.94 27.97
  Q 29.77 20.93 34.04 15.03
  A 0.58 0.58 0.0 0 0 33.38 14.14
  Q 30.83 15.03 28.67 17.18
  Q 16.24 29.58 17.32 47.38
  Q 17.42 49.08 18.31 50.37
  A 0.47 0.47 0.0 0 0 19.10 50.35
  C 21.95 45.75 25.92 39.07 30.00 36.48
  Q 30.52 36.15 30.46 36.77
  Q 29.81 43.35 31.79 49.60
  A 1.29 1.29 0.0 0 0 34.11 49.91
  Q 38.40 43.28 45.05 39.08
  A 0.23 0.23 0.0 0 1 45.37 39.40
  Q 42.42 44.19 41.41 49.75
  A 0.85 0.85 0.0 0 0 42.82 50.54
  L 53.52 41.03
  A 0.18 0.18 0.0 0 1 53.79 41.25
  Q 51.52 45.08 50.93 49.51
  A 1.02 1.01 71.9 0 0 52.64 50.38
  C 56.94 46.25 61.68 41.09 67.14 38.21
  Q 67.89 37.82 67.37 38.48
  C 64.66 41.95 62.44 45.01 61.53 49.50
  A 0.95 0.95 0.0 0 0 62.85 50.56
  C 69.10 47.78 75.53 42.64 81.23 38.77
  Q 82.46 37.93 83.86 37.50
  Q 84.98 37.16 84.01 37.83
  C 80.77 40.06 74.12 45.52 74.40 49.76
  C 74.67 53.87 79.88 54.12 82.17 51.99
  Q 83.39 50.84 84.33 47.40
  Q 85.69 42.41 88.16 38.02
  A 0.55 0.55 0.0 0 1 89.19 38.28
  Q 89.39 52.40 103.44 53.38
  Q 105.15 53.50 107.17 51.67
  Q 107.51 51.36 107.49 50.92
  Q 107.43 48.90 106.01 48.16
  Q 97.01 43.50 91.82 36.68
  Q 91.39 36.12 92.09 36.04
  Q 104.95 34.67 112.49 24.76
  C 114.74 21.80 117.16 13.94 112.49 11.77
  Q 111.68 11.39 111.14 12.10
  Q 102.49 23.55 91.83 33.13
  Q 90.74 34.10 90.60 32.65
  Q 90.16 28.15 90.36 23.15
  C 90.47 20.45 91.37 16.82 91.26 13.61
  A 1.87 1.87 0.0 0 0 88.98 11.85
  Q 86.45 12.42 84.74 14.56
  C 79.61 21.00 81.72 28.95 86.66 34.72
  Q 87.06 35.19 86.48 35.40
  Q 79.00 38.06 72.26 42.29
  A 0.19 0.19 0.0 0 1 72.01 42.02
  L 78.64 32.95
  A 1.47 1.47 0.0 0 0 77.67 30.63
  C 74.62 30.17 67.62 34.91 64.92 36.64
  Q 63.78 37.37 64.51 36.23
  L 67.64 31.33
  A 0.68 0.67 16.8 0 0 67.08 30.29
  C 62.10 30.20 57.36 36.04 54.10 38.41
  Q 51.53 40.29 49.18 42.18
  A 0.50 0.50 0.0 0 1 48.47 41.50
  L 55.95 31.25
  A 0.93 0.59 -4.2 0 0 54.64 30.55
  Q 51.14 32.02 49.07 34.15
  C 46.07 37.24 42.29 39.06 38.93 41.79
  Q 38.20 42.39 38.56 41.51
  C 42.46 31.99 50.37 22.22 57.80 15.32
  A 0.70 0.70 0.0 0 0 57.14 14.13
  Q 47.56 16.70 41.05 24.56
  Q 39.53 26.41 37.78 28.12
  Q 37.19 28.70 37.37 27.89
  Q 38.52 22.71 40.65 17.78
  A 0.94 0.94 0.0 0 0 39.29 16.61
  C 34.26 19.71 31.62 23.43 28.33 28.14
  Q 27.63 29.14 27.94 27.97
  Z
  M 64.01 23.66
  A 0.74 0.74 0.0 0 1 63.49 22.49
  L 64.54 21.03
  A 0.04 0.04 0.0 0 0 64.48 20.97
  Q 59.37 24.56 53.58 24.91
  Q 53.50 24.92 53.50 25.01
  Q 53.50 25.07 53.49 25.11
  Q 53.46 25.18 53.50 25.17
  Q 55.71 24.65 57.61 25.86
  A 0.78 0.78 0.0 0 1 57.90 26.85
  L 57.32 28.08
  Q 57.02 28.73 57.59 28.30
  Q 63.17 24.07 70.27 24.71
  Q 70.54 24.73 70.56 24.50
  L 70.56 24.50
  Q 70.57 24.39 70.53 24.38
  L 64.01 23.66
  Z"
/>
<path fill="#e80080" d="
  M 28.33 28.14
  C 31.62 23.43 34.26 19.71 39.29 16.61
  A 0.94 0.94 0.0 0 1 40.65 17.78
  Q 38.52 22.71 37.37 27.89
  Q 37.19 28.70 37.78 28.12
  Q 39.53 26.41 41.05 24.56
  Q 47.56 16.70 57.14 14.13
  A 0.70 0.70 0.0 0 1 57.80 15.32
  C 50.37 22.22 42.46 31.99 38.56 41.51
  Q 38.20 42.39 38.93 41.79
  C 42.29 39.06 46.07 37.24 49.07 34.15
  Q 51.14 32.02 54.64 30.55
  A 0.93 0.59 -4.2 0 1 55.95 31.25
  L 48.47 41.50
  A 0.50 0.50 0.0 0 0 49.18 42.18
  Q 51.53 40.29 54.10 38.41
  C 57.36 36.04 62.10 30.20 67.08 30.29
  A 0.68 0.67 16.8 0 1 67.64 31.33
  L 64.51 36.23
  Q 63.78 37.37 64.92 36.64
  C 67.62 34.91 74.62 30.17 77.67 30.63
  A 1.47 1.47 0.0 0 1 78.64 32.95
  L 72.01 42.02
  A 0.19 0.19 0.0 0 0 72.26 42.29
  Q 79.00 38.06 86.48 35.40
  Q 87.06 35.19 86.66 34.72
  C 81.72 28.95 79.61 21.00 84.74 14.56
  Q 86.45 12.42 88.98 11.85
  A 1.87 1.87 0.0 0 1 91.26 13.61
  C 91.37 16.82 90.47 20.45 90.36 23.15
  Q 90.16 28.15 90.60 32.65
  Q 90.74 34.10 91.83 33.13
  Q 102.49 23.55 111.14 12.10
  Q 111.68 11.39 112.49 11.77
  C 117.16 13.94 114.74 21.80 112.49 24.76
  Q 104.95 34.67 92.09 36.04
  Q 91.39 36.12 91.82 36.68
  Q 97.01 43.50 106.01 48.16
  Q 107.43 48.90 107.49 50.92
  Q 107.51 51.36 107.17 51.67
  Q 105.15 53.50 103.44 53.38
  Q 89.39 52.40 89.19 38.28
  A 0.55 0.55 0.0 0 0 88.16 38.02
  Q 85.69 42.41 84.33 47.40
  Q 83.39 50.84 82.17 51.99
  C 79.88 54.12 74.67 53.87 74.40 49.76
  C 74.12 45.52 80.77 40.06 84.01 37.83
  Q 84.98 37.16 83.86 37.50
  Q 82.46 37.93 81.23 38.77
  C 75.53 42.64 69.10 47.78 62.85 50.56
  A 0.95 0.95 0.0 0 1 61.53 49.50
  C 62.44 45.01 64.66 41.95 67.37 38.48
  Q 67.89 37.82 67.14 38.21
  C 61.68 41.09 56.94 46.25 52.64 50.38
  A 1.02 1.01 71.9 0 1 50.93 49.51
  Q 51.52 45.08 53.79 41.25
  A 0.18 0.18 0.0 0 0 53.52 41.03
  L 42.82 50.54
  A 0.85 0.85 0.0 0 1 41.41 49.75
  Q 42.42 44.19 45.37 39.40
  A 0.23 0.23 0.0 0 0 45.05 39.08
  Q 38.40 43.28 34.11 49.91
  A 1.29 1.29 0.0 0 1 31.79 49.60
  Q 29.81 43.35 30.46 36.77
  Q 30.52 36.15 30.00 36.48
  C 25.92 39.07 21.95 45.75 19.10 50.35
  A 0.47 0.47 0.0 0 1 18.31 50.37
  Q 17.42 49.08 17.32 47.38
  Q 16.24 29.58 28.67 17.18
  Q 30.83 15.03 33.38 14.14
  A 0.58 0.58 0.0 0 1 34.04 15.03
  Q 29.77 20.93 27.94 27.97
  Q 27.63 29.14 28.33 28.14
  Z
  M 85.20 24.54
  C 84.96 28.19 85.65 30.85 87.82 33.39
  Q 88.26 33.91 88.26 33.23
  L 88.17 24.15
  A 1.07 1.07 0.0 0 0 87.06 23.09
  L 86.67 23.11
  Q 85.29 23.17 85.20 24.54
  Z
  M 93.70 34.38
  C 98.20 32.96 101.92 31.12 105.53 27.94
  Q 106.79 26.83 105.92 25.40
  L 105.72 25.07
  A 1.13 1.12 53.7 0 0 104.01 24.80
  L 93.54 34.08
  A 0.18 0.17 -74.0 0 0 93.70 34.38
  Z
  M 81.45 47.17
  L 85.18 39.00
  Q 85.30 38.74 85.06 38.89
  C 83.29 40.04 77.46 44.94 79.29 47.40
  A 1.27 1.26 38.8 0 0 81.45 47.17
  Z
  M 90.58 39.35
  C 91.20 43.04 92.60 46.29 95.84 48.71
  A 1.62 1.62 0.0 0 0 97.91 48.60
  L 98.30 48.24
  A 1.17 1.17 0.0 0 0 98.21 46.45
  Q 94.08 43.33 91.02 39.16
  Q 90.41 38.33 90.58 39.35
  Z"
/>
<path fill="#e80080" d="
  M 64.01 23.66
  L 70.53 24.38
  Q 70.57 24.39 70.56 24.50
  L 70.56 24.50
  Q 70.54 24.73 70.27 24.71
  Q 63.17 24.07 57.59 28.30
  Q 57.02 28.73 57.32 28.08
  L 57.90 26.85
  A 0.78 0.78 0.0 0 0 57.61 25.86
  Q 55.71 24.65 53.50 25.17
  Q 53.46 25.18 53.49 25.11
  Q 53.50 25.07 53.50 25.01
  Q 53.50 24.92 53.58 24.91
  Q 59.37 24.56 64.48 20.97
  A 0.04 0.04 0.0 0 1 64.54 21.03
  L 63.49 22.49
  A 0.74 0.74 0.0 0 0 64.01 23.66
  Z"
/>
<path fill="#ffffff" d="
  M 87.82 33.39
  C 85.65 30.85 84.96 28.19 85.20 24.54
  Q 85.29 23.17 86.67 23.11
  L 87.06 23.09
  A 1.07 1.07 0.0 0 1 88.17 24.15
  L 88.26 33.23
  Q 88.26 33.91 87.82 33.39
  Z"
/>
<path fill="#ffffff" d="
  M 105.53 27.94
  C 101.92 31.12 98.20 32.96 93.70 34.38
  A 0.18 0.17 -74.0 0 1 93.54 34.08
  L 104.01 24.80
  A 1.13 1.12 53.7 0 1 105.72 25.07
  L 105.92 25.40
  Q 106.79 26.83 105.53 27.94
  Z"
/>
<path fill="#ffffff" d="
  M 85.18 39.00
  L 81.45 47.17
  A 1.27 1.26 38.8 0 1 79.29 47.40
  C 77.46 44.94 83.29 40.04 85.06 38.89
  Q 85.30 38.74 85.18 39.00
  Z"
/>
<path fill="#ffffff" d="
  M 95.84 48.71
  C 92.60 46.29 91.20 43.04 90.58 39.35
  Q 90.41 38.33 91.02 39.16
  Q 94.08 43.33 98.21 46.45
  A 1.17 1.17 0.0 0 1 98.30 48.24
  L 97.91 48.60
  A 1.62 1.62 0.0 0 1 95.84 48.71
  Z"
/>
</svg>
