<svg width="41" height="42" viewBox="0 0 41 42" fill="none" xmlns="http://www.w3.org/2000/svg">
<path d="M7.49043 17.9307H22.0218L28.4036 11.3936L28.4636 11.3322V10.2576H7.49043V17.9307Z" fill="white"/>
<path d="M32.2085 35.5789H3.74525V6.42107H32.2085V7.50315L35.9537 4.64067V2.58447H0V39.4155H35.9537V23.7238L32.2085 27.5604V35.5789Z" fill="white"/>
<path d="M18.3666 22.5346H7.49043V24.8366H17.1379C17.5052 24.0235 17.9321 23.2404 18.3666 22.5346Z" fill="white"/>
<path d="M7.49043 28.6731V30.9751H16.3739C16.1116 30.2535 16.0294 29.4711 16.0817 28.6731H7.49043Z" fill="white"/>
<path d="M23.2978 22.0491C22.0566 23.3207 18.8445 28.6739 20.0859 29.9462C21.3279 31.2186 26.553 27.9275 27.795 26.656L32.9004 21.4248L28.4036 16.8188L23.2978 22.0491Z" fill="white"/>
<path d="M40.069 9.47534C38.8269 8.20369 36.8139 8.20369 35.5726 9.47534L29.4321 15.7659L33.9289 20.372L40.069 14.0814C41.3103 12.8098 41.3103 10.7476 40.069 9.47534ZM32.0445 16.5999L31.2729 15.8101L35.5718 11.4064L36.3421 12.1953L32.0445 16.5999Z" fill="white"/>
</svg>
