<svg width="51" height="41" viewBox="0 0 51 41" fill="none" xmlns="http://www.w3.org/2000/svg">
<path fill-rule="evenodd" clip-rule="evenodd" d="M32.0665 3.41666H8.69146V22.2083H12.9415V18.7917V16.9979V6.83332H30.3027L38.4415 13.3762V16.9979V18.7917V22.2083H42.6915V11.9583L32.0665 3.41666ZM8.52382 35.875V25.6272H11.3935V34.067H16.8721V35.875H8.52382ZM23.781 25.4464C25.7841 25.4464 27.3194 25.9574 28.3869 26.9796C29.4125 27.9583 29.9252 29.2167 29.9252 30.7547C29.9252 32.4374 29.3195 33.7753 28.108 34.7685C27.0645 35.6267 25.6222 36.0558 23.781 36.0558C21.7779 36.0558 20.2426 35.5447 19.175 34.5226C18.1495 33.5439 17.6367 32.2662 17.6367 30.6896C17.6367 29.0407 18.2425 27.7196 19.4539 26.7264C20.5035 25.8731 21.9458 25.4464 23.781 25.4464ZM23.772 27.2544C22.7345 27.2544 21.9338 27.6015 21.3701 28.2958C20.8603 28.9226 20.6054 29.7277 20.6054 30.7113C20.6054 31.8491 20.9083 32.7315 21.514 33.3582C22.0837 33.9513 22.8394 34.2478 23.781 34.2478C24.8125 34.2478 25.6162 33.8982 26.1919 33.1991C26.7017 32.582 26.9566 31.7672 26.9566 30.7547C26.9566 29.641 26.6537 28.7707 26.048 28.1439C25.4782 27.5509 24.7196 27.2544 23.772 27.2544ZM42.7805 30.14V35.3687C42.0488 35.5664 41.533 35.6966 41.2332 35.7593C40.3036 35.957 39.305 36.0558 38.2375 36.0558C36.1385 36.0558 34.5402 35.6315 33.4427 34.783C32.2252 33.8476 31.6165 32.5434 31.6165 30.8704C31.6165 28.9467 32.3721 27.4955 33.8835 26.5167C34.981 25.8031 36.4623 25.4464 38.3275 25.4464C39.9228 25.4464 41.4071 25.6802 42.7805 26.1479L41.7999 27.9487C41.1522 27.6883 40.5855 27.5063 40.0997 27.4026C39.6139 27.299 39.0801 27.2471 38.4984 27.2471C37.107 27.2471 36.0815 27.6112 35.4218 28.3392C34.864 28.9563 34.5851 29.7687 34.5851 30.7764C34.5851 31.9866 35.005 32.8978 35.8446 33.5101C36.5163 34.0019 37.3499 34.2478 38.3455 34.2478C38.9272 34.2478 39.479 34.1682 40.0007 34.0091V31.948H37.8057V30.14H42.7805Z" fill="white"/>
</svg>
