<svg width="50" height="41" viewBox="0 0 50 41" fill="none" xmlns="http://www.w3.org/2000/svg">
<path d="M24.2131 21.1453C27.5562 21.1453 30.2663 18.923 30.2663 16.1816C30.2663 13.4402 27.5562 11.2179 24.2131 11.2179C20.8699 11.2179 18.1598 13.4402 18.1598 16.1816C18.1598 18.923 20.8699 21.1453 24.2131 21.1453Z" stroke="white" stroke-width="3"/>
<path d="M36.2573 34.3817C35.9362 29.5976 34.1499 26.1089 24.2129 26.1089C14.2761 26.1089 12.4897 29.5976 12.1686 34.3817" stroke="white" stroke-width="3" stroke-linecap="round"/>
<path d="M14.1243 6.81317C17.0921 5.40539 20.5379 4.59967 24.2131 4.59967C35.3567 4.59967 44.3906 12.0074 44.3906 21.1453C44.3906 30.2831 35.3567 37.6909 24.2131 37.6909C13.0693 37.6909 4.03551 30.2831 4.03551 21.1453C4.03551 18.1317 5.01809 15.3061 6.7349 12.8725" stroke="white" stroke-width="3" stroke-linecap="round"/>
</svg>
