<svg width="50" height="50" viewBox="0 0 50 50" fill="none" xmlns="http://www.w3.org/2000/svg">
<path d="M44.8438 3.46875L39.1562 3.13281C38.3594 3.08593 37.5781 3.38281 37.0156 3.94531L17.6328 23.3281L16.4844 22.1797L19.8672 18.7969C20.3047 18.3516 20.3047 17.6328 19.8672 17.1953C19.6406 16.9687 19.3438 16.8437 19.0234 16.8594L12 17.1094C11.0781 17.1406 10.3438 17.8906 10.3203 18.8047L10.0859 28.3281L8.66406 29.75C8.00781 30.4062 8.00781 31.4766 8.66406 32.1328L10.0938 33.5625L3.61719 40.0391C2.96094 40.6953 2.96094 41.7656 3.61719 42.4219L7.57812 46.3828C7.90625 46.7109 8.33594 46.875 8.76563 46.875C9.19531 46.875 9.625 46.7109 9.95312 46.3828L16.4297 39.9062L17.8594 41.3359C18.1797 41.6562 18.6016 41.8281 19.0469 41.8281C19.5 41.8281 19.9219 41.6562 20.2344 41.3359L21.6562 39.9141L31.1797 39.6797C32.1016 39.6562 32.8438 38.9219 32.875 38L33.125 30.9766C33.1484 30.3516 32.6563 29.8203 32.0234 29.7969C31.7109 29.7969 31.4062 29.9062 31.1797 30.1328L27.7969 33.5156L26.6484 32.3672L46.0312 12.9844C46.5937 12.4219 46.8906 11.6406 46.8437 10.8437L46.5078 5.15625C46.4531 4.25 45.7266 3.52343 44.8203 3.46875H44.8438ZM38.125 5.04687C38.375 4.79687 38.7109 4.66406 39.0625 4.6875L43.9141 4.97656L21.5937 27.2969L18.7344 24.4375L38.125 5.04687ZM19.7578 27.6641L11.6641 27.8594L11.8672 19.7656L19.7656 27.6641H19.7578ZM15.3828 21.0781L12.9453 18.6406L18 18.4609L15.3828 21.0781ZM11.1953 34.6719L12.7109 36.1875L8.82031 40.0781L5.5625 40.3047L11.1953 34.6719ZM5.29687 41.8906L8.32812 41.6797L8.11719 44.7109L5.30469 41.8984L5.29687 41.8906ZM9.69531 44.4375L9.92187 41.1797L13.8125 37.2891L15.3281 38.8047L9.69531 44.4375ZM19.1406 40.2344C19.1406 40.2344 19.0781 40.2734 19.0547 40.2734C19.0312 40.2734 19 40.2734 18.9688 40.2344L9.77344 31.0391C9.72656 30.9922 9.72656 30.9141 9.77344 30.8672L11.1953 29.4453L20.8047 29.2109L20.5703 38.8203L19.1484 40.2422L19.1406 40.2344ZM31.5391 32.0078L31.3594 37.0625L28.9219 34.625L31.5391 32.0078ZM30.2344 38.1484L22.1406 38.3438L22.3359 30.25L30.2344 38.1484ZM44.9531 11.875L25.5703 31.2578L22.7109 28.3984L45.0234 6.08593L45.3125 10.9375C45.3359 11.2891 45.2031 11.6328 44.9531 11.875Z" fill="white"/>
</svg>
