<svg width="53" height="53" viewBox="0 0 53 53" fill="none" xmlns="http://www.w3.org/2000/svg">
<g opacity="0.3" clip-path="url(#clip0_13_65)">
<path d="M52.9744 35.3979C52.9453 35.1939 52.8879 35.0306 52.8067 34.8416C52.5214 34.2022 51.9034 33.3157 50.6502 32.1676C49.3971 31.025 47.5108 29.6438 44.6912 28.0992L44.5993 28.0489L40.3623 26.8771L37.1743 16.7984L45.4488 10.6468C46.0679 10.2812 46.5474 9.92178 46.905 9.53059C47.0896 9.32666 47.2441 9.1129 47.3589 8.87451C47.4728 8.63777 47.5461 8.37018 47.5461 8.08945C47.5505 7.69474 47.3871 7.30521 47.1504 7.03503C46.7919 6.62439 46.3345 6.41332 45.8302 6.26674C45.3234 6.12451 44.7493 6.05919 44.109 6.05826C44.109 6.05826 44.0931 6.05909 44.0905 6.05909H44.042C39.5744 6.05909 35.7984 5.90454 32.576 5.90454C28.467 5.90982 25.2332 6.13859 22.5989 7.3872C21.2866 8.0116 20.1448 8.90432 19.1982 10.1071C18.249 11.3089 17.4912 12.8092 16.8731 14.6638C16.4474 15.9408 15.5934 18.9901 14.6795 22.3334C14.2784 23.7986 13.8696 25.3121 13.4829 26.7497C8.01128 28.2465 4.73947 29.686 2.76667 30.9929C1.75283 31.6667 1.07553 32.3096 0.634865 32.9374C0.19513 33.5611 -0.000928337 34.1854 3.30394e-06 34.7374C3.30394e-06 35.1392 0.101552 35.4889 0.24813 35.7627L2.75176 40.4413L13.0149 45.3539L16.3742 42.0512V45.8961L17.0842 46.0525C17.1222 46.0596 21.8078 47.0945 27.4454 47.0955C29.6151 47.0955 31.927 46.9418 34.1781 46.5091C42.1001 44.9858 46.3894 43.0014 46.4459 42.9759L47.1992 42.6262L46.4328 40.5191L48.8691 41.5903L52.2611 37.7453C52.7414 37.2015 53.0002 36.5046 53.0002 35.7893C53 35.6585 52.9921 35.5278 52.9744 35.3979ZM18.5881 15.2363C19.1594 13.5223 19.8332 12.2207 20.6174 11.2279C21.7963 9.74435 23.2137 8.90101 25.1564 8.37732C27.0948 7.85892 29.5463 7.71141 32.5761 7.71327C35.742 7.71327 39.5339 7.86782 44.0421 7.86782H44.1066H44.134C44.8024 7.86782 45.3261 7.97465 45.5857 8.0939C45.6352 8.11501 45.6643 8.13447 45.6936 8.15207V8.153C45.585 8.33405 45.1972 8.71023 44.4819 9.11912L44.4369 9.14468L35.0621 16.1157L38.3198 26.4151C30.7226 27.5799 23.0372 27.5896 15.4383 26.447C15.7615 25.2478 16.0962 24.0115 16.4247 22.8105C17.3322 19.4848 18.196 16.4116 18.5881 15.2363ZM50.9045 36.5486L48.3868 39.4027L43.2862 37.1597L44.9216 41.6554C43.4028 42.2613 39.6293 43.6194 33.8371 44.733C31.7336 45.1383 29.5295 45.2867 27.4454 45.2867C24.737 45.2867 22.2326 45.0359 20.4125 44.7843C19.502 44.6588 18.7628 44.5336 18.2533 44.4399C18.2268 44.4355 18.2083 44.4311 18.1827 44.4266V37.7381L12.6511 43.1743L4.06672 39.0654L1.843 34.9096C1.83327 34.8902 1.80946 34.8363 1.80852 34.7374C1.81028 34.6032 1.84827 34.3612 2.11576 33.9754C2.51326 33.4005 3.45722 32.5447 5.37878 31.5724C7.06629 30.7159 9.49932 29.7656 12.9389 28.7784C12.7897 29.3347 12.6493 29.8619 12.5168 30.3573C11.9613 31.7773 11.4068 33.2123 11.2505 34.5431C20.9379 36.2157 32.7606 35.7635 42.448 34.0909C42.3261 33.056 41.9412 32.0263 41.4978 31.0037L41.6523 30.9551L41.013 28.9338L43.9086 29.7347C46.9624 31.4135 48.8071 32.8625 49.873 33.9239C50.4117 34.4599 50.7526 34.898 50.9512 35.2089C51.051 35.3644 51.1156 35.488 51.1508 35.5692L51.1827 35.6505L51.1915 35.7891C51.1915 36.0672 51.0908 36.3384 50.9045 36.5486Z" fill="white"/>
</g>
<defs>
<clipPath id="clip0_13_65">
<rect width="53" height="53" fill="white"/>
</clipPath>
</defs>
</svg>
