<svg width="49" height="49" viewBox="0 0 49 49" fill="none" xmlns="http://www.w3.org/2000/svg">
<path d="M45.9375 32.5391H36.3672V18.8237L45.3663 23.9656C45.5302 24.0605 45.7277 24.1157 45.9375 24.1172C46.5714 24.1157 47.0844 23.6027 47.0844 22.9672C47.0844 22.5431 46.8547 22.1725 46.5132 21.9734L46.5071 21.9704L25.6469 10.0511V9.20588C25.9103 9.23038 26.1828 9.31001 26.4416 9.31001C26.4478 9.31001 26.4569 9.31001 26.4646 9.31001C27.1919 9.31001 27.8948 9.20741 28.5593 9.01447L28.5057 9.02826C29.0003 8.93179 29.5669 8.87666 30.1488 8.87666C30.749 8.87666 31.3355 8.93638 31.9036 9.04816L31.8469 9.03897C31.9067 9.04969 31.974 9.05735 32.0445 9.05735C32.3262 9.05735 32.5835 8.95322 32.7779 8.78019L32.7764 8.78172C33.0229 8.56888 33.1791 8.25651 33.1807 7.90738V3.60151C33.1807 3.05791 32.8024 2.6016 32.2941 2.48369L32.2864 2.48216C31.6448 2.31219 30.9083 2.21266 30.1488 2.21266C29.3832 2.21266 28.6405 2.31219 27.9346 2.49901L27.9943 2.48522C27.5533 2.58782 27.048 2.64601 26.5274 2.64601C26.1737 2.64601 25.8276 2.61844 25.4892 2.56638L25.5275 2.57097C25.3407 2.17897 24.9487 1.91254 24.4923 1.91254C23.8615 1.91254 23.35 2.42397 23.35 3.05485C23.35 3.05638 23.35 3.05944 23.35 3.06097V10.0511L2.49135 21.9704C2.14375 22.1725 1.91253 22.5431 1.91253 22.9672C1.91253 23.6012 2.42703 24.1157 3.06097 24.1157C3.27075 24.1157 3.46675 24.059 3.63672 23.961L3.6306 23.9641L12.6313 18.8206V32.536H3.06097C2.42703 32.536 1.91253 33.0505 1.91253 33.6844V45.9344C1.91253 46.5684 2.42703 47.0829 3.06097 47.0829H45.936C46.5699 47.0829 47.0844 46.5684 47.0844 45.9344V33.6844C47.0844 33.0505 46.5699 32.536 45.936 32.536L45.9375 32.5391ZM28.5701 4.7086C29.0264 4.58304 29.5501 4.50954 30.0906 4.50954C30.3708 4.50954 30.6464 4.52944 30.9159 4.56619L30.8853 4.56313V6.61347C30.6403 6.59357 30.357 6.58132 30.0692 6.58132C29.3204 6.58132 28.59 6.66094 27.8871 6.81254L27.9545 6.80029C27.489 6.93504 26.9546 7.01313 26.4018 7.01313C26.1354 7.01313 25.8751 6.99476 25.6178 6.96107L25.6484 6.96413V4.93829C25.8781 4.95972 26.1461 4.97044 26.4171 4.97044C27.1812 4.97044 27.9239 4.87551 28.6328 4.69482L28.5701 4.7086ZM4.21094 34.8359H12.6328V44.7891H4.21094V34.8359ZM14.9297 33.6875V17.5114L24.5 12.0433L34.0703 17.5129V44.7906H30.2422V36.7515C30.2422 36.1176 29.7277 35.6031 29.0938 35.6031H19.9063C19.2723 35.6031 18.7578 36.1176 18.7578 36.7515V44.7906H14.9297V33.6875ZM21.0547 44.7891V37.8984H27.9453V44.7891H21.0547ZM44.7891 44.7891H36.3672V34.8359H44.7891V44.7891ZM24.5 30.2422C27.6712 30.2422 30.2422 27.6712 30.2422 24.5C30.2422 21.3288 27.6712 18.7578 24.5 18.7578C21.3288 18.7578 18.7578 21.3288 18.7578 24.5C18.7609 27.6697 21.3303 30.2391 24.5 30.2422ZM24.5 21.0547C26.4033 21.0547 27.9453 22.5967 27.9453 24.5C27.9453 26.4033 26.4033 27.9453 24.5 27.9453C22.5967 27.9453 21.0547 26.4033 21.0547 24.5C21.0578 22.5982 22.5982 21.0578 24.5 21.0547Z" fill="white"/>
</svg>
