<svg width="21" height="24" viewBox="0 0 21 24" fill="none" xmlns="http://www.w3.org/2000/svg">
<g clip-path="url(#clip0_2_12)">
<path d="M8.97177 19.9605C10.2819 19.9605 11.576 19.5675 12.7284 18.8213L16.1978 23.1458C16.6236 23.673 17.193 23.9633 17.8007 23.9633C18.4079 23.9633 18.9772 23.673 19.4036 23.1458C20.2824 22.0598 20.2824 20.2913 19.4036 19.2053L15.9738 14.9663C16.6898 13.4415 17.0674 11.718 17.0674 9.96226C17.0674 4.44826 13.4358 -0.0367432 8.97177 -0.0367432C4.5084 -0.0367432 0.87619 4.44826 0.87619 9.96226C0.87619 15.4755 4.50778 19.9605 8.97177 19.9605ZM8.97177 0.713257C13.0941 0.713257 16.4485 4.86226 16.4485 9.96226C16.4485 11.682 16.0573 13.368 15.3172 14.8388C15.2472 14.9775 15.2646 15.1523 15.3512 15.2753C15.3679 15.2985 15.3865 15.3195 15.4069 15.3368L18.9618 19.7295C19.6066 20.5268 19.6066 21.8235 18.9618 22.6208C18.3435 23.3843 17.2567 23.3835 16.6409 22.6215L13.005 18.0893C12.9413 18.0105 12.8627 17.967 12.7835 17.967C12.7247 17.967 12.6653 17.991 12.6127 18.042C11.5067 18.807 10.2479 19.2105 8.97239 19.2105C4.85003 19.2105 1.49569 15.0623 1.49569 9.96226C1.49569 4.86226 4.84941 0.713257 8.97177 0.713257Z" fill="#808184"/>
<path d="M8.97178 16.149C11.7351 16.149 13.9835 13.374 13.9835 9.96225C13.9835 6.5505 11.7351 3.77475 8.97178 3.77475C6.20848 3.77475 3.96008 6.5505 3.96008 9.96225C3.96008 13.374 6.20848 16.149 8.97178 16.149ZM8.97178 4.52475C11.3941 4.52475 13.3646 6.96375 13.3646 9.96225C13.3646 12.96 11.3941 15.399 8.97178 15.399C6.54948 15.399 4.57896 12.96 4.57896 9.96225C4.57896 6.96375 6.54948 4.52475 8.97178 4.52475Z" fill="#808184"/>
</g>
<defs>
<clipPath id="clip0_2_12">
<rect width="19.8042" height="24" fill="white" transform="translate(0.60141)"/>
</clipPath>
</defs>
</svg>
